<mxfile host="65bd71144e">
    <diagram id="KzncD6RpxPqM1Z24HgHA" name="Page-1">
        <mxGraphModel dx="1881" dy="917" grid="1" gridSize="10" guides="1" tooltips="1" connect="1" arrows="1" fold="1" page="1" pageScale="1" pageWidth="850" pageHeight="1100" background="#ffffff" math="0" shadow="0">
            <root>
                <mxCell id="0"/>
                <mxCell id="1" parent="0"/>
                <mxCell id="118" value="" style="endArrow=classic;html=1;strokeColor=#000000;fontColor=#000000;strokeWidth=2;" edge="1" parent="1">
                    <mxGeometry width="50" height="50" relative="1" as="geometry">
                        <mxPoint x="223.33999999999992" y="210" as="sourcePoint"/>
                        <mxPoint x="303.3399999999999" y="210" as="targetPoint"/>
                    </mxGeometry>
                </mxCell>
                <mxCell id="119" value="pq.push(5)" style="text;html=1;strokeColor=none;fillColor=none;align=center;verticalAlign=middle;whiteSpace=wrap;rounded=0;fontColor=#000000;fontStyle=0" vertex="1" parent="1">
                    <mxGeometry x="229.33999999999997" y="190" width="60" height="20" as="geometry"/>
                </mxCell>
                <mxCell id="120" value="" style="endArrow=none;html=1;strokeColor=#000000;fontColor=#000000;strokeWidth=2;" edge="1" parent="1">
                    <mxGeometry width="50" height="50" relative="1" as="geometry">
                        <mxPoint x="556.3399999999999" y="547.87" as="sourcePoint"/>
                        <mxPoint x="556.3399999999999" y="517.87" as="targetPoint"/>
                    </mxGeometry>
                </mxCell>
                <mxCell id="121" value="" style="endArrow=none;html=1;strokeColor=#000000;fontColor=#000000;strokeWidth=2;" edge="1" parent="1">
                    <mxGeometry width="50" height="50" relative="1" as="geometry">
                        <mxPoint x="596.3399999999999" y="547.87" as="sourcePoint"/>
                        <mxPoint x="596.3399999999999" y="517.87" as="targetPoint"/>
                    </mxGeometry>
                </mxCell>
                <mxCell id="122" value="" style="endArrow=none;html=1;strokeColor=#000000;fontColor=#000000;strokeWidth=2;" edge="1" parent="1">
                    <mxGeometry width="50" height="50" relative="1" as="geometry">
                        <mxPoint x="556.3399999999999" y="547.87" as="sourcePoint"/>
                        <mxPoint x="596.3399999999999" y="547.87" as="targetPoint"/>
                    </mxGeometry>
                </mxCell>
                <mxCell id="123" value="" style="endArrow=classic;html=1;strokeColor=#000000;fontColor=#000000;strokeWidth=2;" edge="1" parent="1">
                    <mxGeometry width="50" height="50" relative="1" as="geometry">
                        <mxPoint x="378.34000000000015" y="210" as="sourcePoint"/>
                        <mxPoint x="458.34000000000015" y="210" as="targetPoint"/>
                    </mxGeometry>
                </mxCell>
                <mxCell id="124" value="pq.push(7)" style="text;html=1;strokeColor=none;fillColor=none;align=center;verticalAlign=middle;whiteSpace=wrap;rounded=0;fontColor=#000000;" vertex="1" parent="1">
                    <mxGeometry x="384.34" y="190" width="60" height="20" as="geometry"/>
                </mxCell>
                <mxCell id="125" value="" style="endArrow=none;html=1;strokeColor=#000000;fontColor=#000000;strokeWidth=2;" edge="1" parent="1">
                    <mxGeometry width="50" height="50" relative="1" as="geometry">
                        <mxPoint x="473.34000000000015" y="229.73000000000002" as="sourcePoint"/>
                        <mxPoint x="473.34000000000015" y="169.73000000000002" as="targetPoint"/>
                    </mxGeometry>
                </mxCell>
                <mxCell id="126" value="" style="endArrow=none;html=1;strokeColor=#000000;fontColor=#000000;strokeWidth=2;" edge="1" parent="1">
                    <mxGeometry width="50" height="50" relative="1" as="geometry">
                        <mxPoint x="513.3400000000001" y="229.73000000000002" as="sourcePoint"/>
                        <mxPoint x="513.3400000000001" y="169.73000000000002" as="targetPoint"/>
                    </mxGeometry>
                </mxCell>
                <mxCell id="127" value="" style="endArrow=none;html=1;strokeColor=#000000;fontColor=#000000;strokeWidth=2;" edge="1" parent="1">
                    <mxGeometry width="50" height="50" relative="1" as="geometry">
                        <mxPoint x="473.34000000000015" y="229.73000000000002" as="sourcePoint"/>
                        <mxPoint x="513.3400000000001" y="229.73000000000002" as="targetPoint"/>
                    </mxGeometry>
                </mxCell>
                <mxCell id="128" value="" style="endArrow=classic;html=1;strokeColor=#000000;fontColor=#000000;strokeWidth=2;" edge="1" parent="1">
                    <mxGeometry width="50" height="50" relative="1" as="geometry">
                        <mxPoint x="533.3400000000001" y="210" as="sourcePoint"/>
                        <mxPoint x="613.3400000000001" y="210" as="targetPoint"/>
                    </mxGeometry>
                </mxCell>
                <mxCell id="129" value="pq.push(1)" style="text;html=1;strokeColor=none;fillColor=none;align=center;verticalAlign=middle;whiteSpace=wrap;rounded=0;fontColor=#000000;" vertex="1" parent="1">
                    <mxGeometry x="539.34" y="190" width="60" height="20" as="geometry"/>
                </mxCell>
                <mxCell id="130" value="" style="endArrow=none;html=1;strokeColor=#000000;fontColor=#000000;strokeWidth=2;" edge="1" parent="1">
                    <mxGeometry width="50" height="50" relative="1" as="geometry">
                        <mxPoint x="623.3400000000001" y="230" as="sourcePoint"/>
                        <mxPoint x="623.3400000000001" y="140" as="targetPoint"/>
                    </mxGeometry>
                </mxCell>
                <mxCell id="131" value="" style="endArrow=none;html=1;strokeColor=#000000;fontColor=#000000;strokeWidth=2;" edge="1" parent="1">
                    <mxGeometry width="50" height="50" relative="1" as="geometry">
                        <mxPoint x="663.3400000000001" y="230" as="sourcePoint"/>
                        <mxPoint x="663.3400000000001" y="140" as="targetPoint"/>
                    </mxGeometry>
                </mxCell>
                <mxCell id="132" value="" style="endArrow=none;html=1;strokeColor=#000000;fontColor=#000000;strokeWidth=2;" edge="1" parent="1">
                    <mxGeometry width="50" height="50" relative="1" as="geometry">
                        <mxPoint x="623.3400000000001" y="230" as="sourcePoint"/>
                        <mxPoint x="663.3400000000001" y="230" as="targetPoint"/>
                    </mxGeometry>
                </mxCell>
                <mxCell id="133" value="" style="endArrow=classic;html=1;strokeColor=#000000;fontColor=#000000;strokeWidth=2;" edge="1" parent="1">
                    <mxGeometry width="50" height="50" relative="1" as="geometry">
                        <mxPoint x="683.3400000000001" y="210" as="sourcePoint"/>
                        <mxPoint x="763.3400000000001" y="210" as="targetPoint"/>
                    </mxGeometry>
                </mxCell>
                <mxCell id="134" value="pq.top()" style="text;html=1;strokeColor=none;fillColor=none;align=center;verticalAlign=middle;whiteSpace=wrap;rounded=0;fontColor=#000000;" vertex="1" parent="1">
                    <mxGeometry x="689.34" y="190" width="60" height="20" as="geometry"/>
                </mxCell>
                <mxCell id="135" value="7" style="text;html=1;strokeColor=none;fillColor=#E6E6E6;align=center;verticalAlign=middle;whiteSpace=wrap;rounded=0;fontColor=#000000;fontStyle=1" vertex="1" parent="1">
                    <mxGeometry x="474.34" y="199" width="38" height="30" as="geometry"/>
                </mxCell>
                <mxCell id="136" value="5" style="text;html=1;strokeColor=none;fillColor=#66FFFF;align=center;verticalAlign=middle;whiteSpace=wrap;rounded=0;fontColor=#000000;fontStyle=1" vertex="1" parent="1">
                    <mxGeometry x="474.34" y="170" width="38" height="30" as="geometry"/>
                </mxCell>
                <mxCell id="137" value="" style="endArrow=none;html=1;strokeColor=#000000;fontColor=#000000;strokeWidth=2;dashed=1;" edge="1" parent="1">
                    <mxGeometry width="50" height="50" relative="1" as="geometry">
                        <mxPoint x="473.34000000000015" y="199.92000000000007" as="sourcePoint"/>
                        <mxPoint x="513.3400000000001" y="199.92000000000007" as="targetPoint"/>
                    </mxGeometry>
                </mxCell>
                <mxCell id="138" value="7" style="text;html=1;strokeColor=none;fillColor=#E6E6E6;align=center;verticalAlign=middle;whiteSpace=wrap;rounded=0;fontColor=#000000;fontStyle=1" vertex="1" parent="1">
                    <mxGeometry x="624.34" y="199" width="38" height="30" as="geometry"/>
                </mxCell>
                <mxCell id="139" value="5" style="text;html=1;strokeColor=none;fillColor=#E6E6E6;align=center;verticalAlign=middle;whiteSpace=wrap;rounded=0;fontColor=#000000;fontStyle=1" vertex="1" parent="1">
                    <mxGeometry x="624.34" y="170" width="38" height="30" as="geometry"/>
                </mxCell>
                <mxCell id="140" value="1" style="text;html=1;strokeColor=none;fillColor=#66FFFF;align=center;verticalAlign=middle;whiteSpace=wrap;rounded=0;fontColor=#000000;fontStyle=1" vertex="1" parent="1">
                    <mxGeometry x="624.34" y="140" width="38" height="30" as="geometry"/>
                </mxCell>
                <mxCell id="141" value="" style="endArrow=none;html=1;strokeColor=#000000;fontColor=#000000;strokeWidth=2;dashed=1;" edge="1" parent="1">
                    <mxGeometry width="50" height="50" relative="1" as="geometry">
                        <mxPoint x="623.3400000000001" y="200" as="sourcePoint"/>
                        <mxPoint x="663.3400000000001" y="200" as="targetPoint"/>
                    </mxGeometry>
                </mxCell>
                <mxCell id="142" value="" style="endArrow=none;html=1;strokeColor=#000000;fontColor=#000000;strokeWidth=2;dashed=1;" edge="1" parent="1">
                    <mxGeometry width="50" height="50" relative="1" as="geometry">
                        <mxPoint x="623.3400000000001" y="170" as="sourcePoint"/>
                        <mxPoint x="663.3400000000001" y="170" as="targetPoint"/>
                    </mxGeometry>
                </mxCell>
                <mxCell id="143" value="1" style="text;html=1;strokeColor=#66FFFF;fillColor=none;align=center;verticalAlign=middle;whiteSpace=wrap;rounded=0;fontColor=#000000;fontStyle=1;fontSize=14;labelBorderColor=none;strokeWidth=3;" vertex="1" parent="1">
                    <mxGeometry x="769.34" y="194" width="30" height="30" as="geometry"/>
                </mxCell>
                <mxCell id="144" value="" style="endArrow=classic;html=1;strokeColor=#000000;fontColor=#000000;strokeWidth=2;" edge="1" parent="1">
                    <mxGeometry width="50" height="50" relative="1" as="geometry">
                        <mxPoint x="34.34000000000002" y="367.06999999999994" as="sourcePoint"/>
                        <mxPoint x="114.34000000000002" y="367.06999999999994" as="targetPoint"/>
                    </mxGeometry>
                </mxCell>
                <mxCell id="145" value="pq.pop()" style="text;html=1;strokeColor=none;fillColor=none;align=center;verticalAlign=middle;whiteSpace=wrap;rounded=0;fontColor=#000000;" vertex="1" parent="1">
                    <mxGeometry x="40.34000000000002" y="347.07" width="60" height="20" as="geometry"/>
                </mxCell>
                <mxCell id="146" value="" style="endArrow=none;html=1;strokeColor=#000000;fontColor=#000000;strokeWidth=2;" edge="1" parent="1">
                    <mxGeometry width="50" height="50" relative="1" as="geometry">
                        <mxPoint x="129.11999999999998" y="387.06999999999994" as="sourcePoint"/>
                        <mxPoint x="129.11999999999998" y="327.06999999999994" as="targetPoint"/>
                    </mxGeometry>
                </mxCell>
                <mxCell id="147" value="" style="endArrow=none;html=1;strokeColor=#000000;fontColor=#000000;strokeWidth=2;" edge="1" parent="1">
                    <mxGeometry width="50" height="50" relative="1" as="geometry">
                        <mxPoint x="169.11999999999998" y="387.06999999999994" as="sourcePoint"/>
                        <mxPoint x="169.11999999999998" y="327.06999999999994" as="targetPoint"/>
                    </mxGeometry>
                </mxCell>
                <mxCell id="148" value="" style="endArrow=none;html=1;strokeColor=#000000;fontColor=#000000;strokeWidth=2;" edge="1" parent="1">
                    <mxGeometry width="50" height="50" relative="1" as="geometry">
                        <mxPoint x="129.11999999999998" y="387.06999999999994" as="sourcePoint"/>
                        <mxPoint x="169.11999999999998" y="387.06999999999994" as="targetPoint"/>
                    </mxGeometry>
                </mxCell>
                <mxCell id="149" value="7" style="text;html=1;strokeColor=none;fillColor=#E6E6E6;align=center;verticalAlign=middle;whiteSpace=wrap;rounded=0;fontColor=#000000;fontStyle=1" vertex="1" parent="1">
                    <mxGeometry x="130.34" y="356.07" width="38" height="30" as="geometry"/>
                </mxCell>
                <mxCell id="150" value="5" style="text;html=1;strokeColor=none;fillColor=#66FFFF;align=center;verticalAlign=middle;whiteSpace=wrap;rounded=0;fontColor=#000000;fontStyle=1" vertex="1" parent="1">
                    <mxGeometry x="130.34" y="327.34" width="38" height="30" as="geometry"/>
                </mxCell>
                <mxCell id="151" value="" style="endArrow=none;html=1;strokeColor=#000000;fontColor=#000000;strokeWidth=2;dashed=1;" edge="1" parent="1">
                    <mxGeometry width="50" height="50" relative="1" as="geometry">
                        <mxPoint x="129.11999999999998" y="357.26" as="sourcePoint"/>
                        <mxPoint x="169.11999999999998" y="357.26" as="targetPoint"/>
                    </mxGeometry>
                </mxCell>
                <mxCell id="152" value="" style="endArrow=classic;html=1;strokeColor=#000000;fontColor=#000000;strokeWidth=2;" edge="1" parent="1">
                    <mxGeometry width="50" height="50" relative="1" as="geometry">
                        <mxPoint x="185.34" y="366.51" as="sourcePoint"/>
                        <mxPoint x="265.34000000000003" y="366.51" as="targetPoint"/>
                    </mxGeometry>
                </mxCell>
                <mxCell id="153" value="pq.pop()" style="text;html=1;strokeColor=none;fillColor=none;align=center;verticalAlign=middle;whiteSpace=wrap;rounded=0;fontColor=#000000;" vertex="1" parent="1">
                    <mxGeometry x="191.34" y="346.51" width="60" height="20" as="geometry"/>
                </mxCell>
                <mxCell id="154" value="" style="endArrow=classic;html=1;strokeColor=#000000;fontColor=#000000;strokeWidth=2;" edge="1" parent="1">
                    <mxGeometry width="50" height="50" relative="1" as="geometry">
                        <mxPoint x="622.85" y="367.3399999999999" as="sourcePoint"/>
                        <mxPoint x="702.85" y="367.3399999999999" as="targetPoint"/>
                    </mxGeometry>
                </mxCell>
                <mxCell id="155" value="pq.top()" style="text;html=1;strokeColor=none;fillColor=none;align=center;verticalAlign=middle;whiteSpace=wrap;rounded=0;fontColor=#000000;" vertex="1" parent="1">
                    <mxGeometry x="628.85" y="347.34000000000003" width="60" height="20" as="geometry"/>
                </mxCell>
                <mxCell id="156" value="" style="endArrow=classic;html=1;strokeColor=#000000;fontColor=#000000;strokeWidth=2;" edge="1" parent="1">
                    <mxGeometry width="50" height="50" relative="1" as="geometry">
                        <mxPoint x="340.34000000000003" y="367.3399999999999" as="sourcePoint"/>
                        <mxPoint x="420.34000000000003" y="367.3399999999999" as="targetPoint"/>
                    </mxGeometry>
                </mxCell>
                <mxCell id="157" value="pq.push(3)" style="text;html=1;strokeColor=none;fillColor=none;align=center;verticalAlign=middle;whiteSpace=wrap;rounded=0;fontColor=#000000;" vertex="1" parent="1">
                    <mxGeometry x="346.3399999999999" y="347.34" width="60" height="20" as="geometry"/>
                </mxCell>
                <mxCell id="158" value="" style="endArrow=none;html=1;strokeColor=#000000;fontColor=#000000;strokeWidth=2;" edge="1" parent="1">
                    <mxGeometry width="50" height="50" relative="1" as="geometry">
                        <mxPoint x="435.34000000000003" y="387.3399999999999" as="sourcePoint"/>
                        <mxPoint x="435.34000000000003" y="327.3399999999999" as="targetPoint"/>
                    </mxGeometry>
                </mxCell>
                <mxCell id="159" value="" style="endArrow=none;html=1;strokeColor=#000000;fontColor=#000000;strokeWidth=2;" edge="1" parent="1">
                    <mxGeometry width="50" height="50" relative="1" as="geometry">
                        <mxPoint x="475.34000000000003" y="387.3399999999999" as="sourcePoint"/>
                        <mxPoint x="475.34000000000003" y="327.3399999999999" as="targetPoint"/>
                    </mxGeometry>
                </mxCell>
                <mxCell id="160" value="" style="endArrow=none;html=1;strokeColor=#000000;fontColor=#000000;strokeWidth=2;" edge="1" parent="1">
                    <mxGeometry width="50" height="50" relative="1" as="geometry">
                        <mxPoint x="435.34000000000003" y="387.3399999999999" as="sourcePoint"/>
                        <mxPoint x="475.34000000000003" y="387.3399999999999" as="targetPoint"/>
                    </mxGeometry>
                </mxCell>
                <mxCell id="161" value="7" style="text;html=1;strokeColor=none;fillColor=#E6E6E6;align=center;verticalAlign=middle;whiteSpace=wrap;rounded=0;fontColor=#000000;fontStyle=1" vertex="1" parent="1">
                    <mxGeometry x="436.34000000000003" y="356.07" width="38" height="30" as="geometry"/>
                </mxCell>
                <mxCell id="162" value="3" style="text;html=1;strokeColor=none;fillColor=#66FFFF;align=center;verticalAlign=middle;whiteSpace=wrap;rounded=0;fontColor=#000000;fontStyle=1" vertex="1" parent="1">
                    <mxGeometry x="436.34000000000003" y="327.60999999999996" width="38" height="30" as="geometry"/>
                </mxCell>
                <mxCell id="163" value="" style="endArrow=none;html=1;strokeColor=#000000;fontColor=#000000;strokeWidth=2;dashed=1;" edge="1" parent="1">
                    <mxGeometry width="50" height="50" relative="1" as="geometry">
                        <mxPoint x="435.34000000000003" y="357.53" as="sourcePoint"/>
                        <mxPoint x="475.34000000000003" y="357.53" as="targetPoint"/>
                    </mxGeometry>
                </mxCell>
                <mxCell id="164" value="priority_queue&amp;lt;int, vector&amp;lt;int&amp;gt;, greater&amp;lt;int&amp;gt;&amp;gt; pq" style="text;html=1;strokeColor=none;fillColor=none;align=center;verticalAlign=middle;whiteSpace=wrap;rounded=0;fontColor=#000000;fontStyle=1;fontSize=13;" vertex="1" parent="1">
                    <mxGeometry x="-100" y="199" width="320" height="20" as="geometry"/>
                </mxCell>
                <mxCell id="165" value="9" style="text;html=1;strokeColor=none;fillColor=#66FFFF;align=center;verticalAlign=middle;whiteSpace=wrap;rounded=0;fontColor=#000000;fontStyle=1;labelBackgroundColor=none;" vertex="1" parent="1">
                    <mxGeometry x="557.34" y="518.1" width="38" height="29" as="geometry"/>
                </mxCell>
                <mxCell id="166" value="3" style="text;html=1;strokeColor=#66FFFF;fillColor=none;align=center;verticalAlign=middle;whiteSpace=wrap;rounded=0;fontColor=#000000;fontStyle=1;fontSize=14;labelBorderColor=none;strokeWidth=3;" vertex="1" parent="1">
                    <mxGeometry x="708.85" y="352.07000000000005" width="30" height="30" as="geometry"/>
                </mxCell>
                <mxCell id="167" value="" style="endArrow=none;html=1;strokeColor=#000000;fontColor=#000000;strokeWidth=2;" edge="1" parent="1">
                    <mxGeometry width="50" height="50" relative="1" as="geometry">
                        <mxPoint x="316.3399999999997" y="230" as="sourcePoint"/>
                        <mxPoint x="316.3399999999997" y="200" as="targetPoint"/>
                    </mxGeometry>
                </mxCell>
                <mxCell id="168" value="" style="endArrow=none;html=1;strokeColor=#000000;fontColor=#000000;strokeWidth=2;" edge="1" parent="1">
                    <mxGeometry width="50" height="50" relative="1" as="geometry">
                        <mxPoint x="356.34000000000015" y="230" as="sourcePoint"/>
                        <mxPoint x="356.34000000000015" y="200" as="targetPoint"/>
                    </mxGeometry>
                </mxCell>
                <mxCell id="169" value="" style="endArrow=none;html=1;strokeColor=#000000;fontColor=#000000;strokeWidth=2;" edge="1" parent="1">
                    <mxGeometry width="50" height="50" relative="1" as="geometry">
                        <mxPoint x="316.3399999999997" y="230" as="sourcePoint"/>
                        <mxPoint x="356.34000000000015" y="230" as="targetPoint"/>
                    </mxGeometry>
                </mxCell>
                <mxCell id="170" value="5" style="text;html=1;strokeColor=none;fillColor=#66FFFF;align=center;verticalAlign=middle;whiteSpace=wrap;rounded=0;fontColor=#000000;fontStyle=1;labelBackgroundColor=none;" vertex="1" parent="1">
                    <mxGeometry x="317.3399999999999" y="200.00000000000003" width="38" height="29" as="geometry"/>
                </mxCell>
                <mxCell id="171" value="" style="endArrow=none;html=1;strokeColor=#000000;fontColor=#000000;strokeWidth=2;" edge="1" parent="1">
                    <mxGeometry width="50" height="50" relative="1" as="geometry">
                        <mxPoint x="-19.999999999999904" y="387" as="sourcePoint"/>
                        <mxPoint x="-19.999999999999904" y="297" as="targetPoint"/>
                    </mxGeometry>
                </mxCell>
                <mxCell id="172" value="" style="endArrow=none;html=1;strokeColor=#000000;fontColor=#000000;strokeWidth=2;" edge="1" parent="1">
                    <mxGeometry width="50" height="50" relative="1" as="geometry">
                        <mxPoint x="20.000000000000096" y="387" as="sourcePoint"/>
                        <mxPoint x="20.000000000000096" y="297" as="targetPoint"/>
                    </mxGeometry>
                </mxCell>
                <mxCell id="173" value="" style="endArrow=none;html=1;strokeColor=#000000;fontColor=#000000;strokeWidth=2;" edge="1" parent="1">
                    <mxGeometry width="50" height="50" relative="1" as="geometry">
                        <mxPoint x="-19.999999999999904" y="387" as="sourcePoint"/>
                        <mxPoint x="20.000000000000096" y="387" as="targetPoint"/>
                    </mxGeometry>
                </mxCell>
                <mxCell id="174" value="7" style="text;html=1;strokeColor=none;fillColor=#E6E6E6;align=center;verticalAlign=middle;whiteSpace=wrap;rounded=0;fontColor=#000000;fontStyle=1" vertex="1" parent="1">
                    <mxGeometry x="-18.99999999999999" y="356" width="38" height="30" as="geometry"/>
                </mxCell>
                <mxCell id="175" value="5" style="text;html=1;strokeColor=none;fillColor=#E6E6E6;align=center;verticalAlign=middle;whiteSpace=wrap;rounded=0;fontColor=#000000;fontStyle=1" vertex="1" parent="1">
                    <mxGeometry x="-18.99999999999999" y="327" width="38" height="30" as="geometry"/>
                </mxCell>
                <mxCell id="176" value="1" style="text;html=1;strokeColor=none;fillColor=#66FFFF;align=center;verticalAlign=middle;whiteSpace=wrap;rounded=0;fontColor=#000000;fontStyle=1" vertex="1" parent="1">
                    <mxGeometry x="-18.99999999999999" y="297" width="38" height="30" as="geometry"/>
                </mxCell>
                <mxCell id="177" value="" style="endArrow=none;html=1;strokeColor=#000000;fontColor=#000000;strokeWidth=2;dashed=1;" edge="1" parent="1">
                    <mxGeometry width="50" height="50" relative="1" as="geometry">
                        <mxPoint x="-19.999999999999904" y="357" as="sourcePoint"/>
                        <mxPoint x="20.000000000000096" y="357" as="targetPoint"/>
                    </mxGeometry>
                </mxCell>
                <mxCell id="178" value="" style="endArrow=none;html=1;strokeColor=#000000;fontColor=#000000;strokeWidth=2;dashed=1;" edge="1" parent="1">
                    <mxGeometry width="50" height="50" relative="1" as="geometry">
                        <mxPoint x="-19.999999999999904" y="327" as="sourcePoint"/>
                        <mxPoint x="20.000000000000096" y="327" as="targetPoint"/>
                    </mxGeometry>
                </mxCell>
                <mxCell id="179" value="" style="endArrow=none;html=1;strokeColor=#000000;fontColor=#000000;strokeWidth=2;" edge="1" parent="1">
                    <mxGeometry width="50" height="50" relative="1" as="geometry">
                        <mxPoint x="120.33999999999986" y="549.87" as="sourcePoint"/>
                        <mxPoint x="120.33999999999986" y="489.87" as="targetPoint"/>
                    </mxGeometry>
                </mxCell>
                <mxCell id="180" value="" style="endArrow=none;html=1;strokeColor=#000000;fontColor=#000000;strokeWidth=2;" edge="1" parent="1">
                    <mxGeometry width="50" height="50" relative="1" as="geometry">
                        <mxPoint x="160.33999999999986" y="549.87" as="sourcePoint"/>
                        <mxPoint x="160.33999999999986" y="489.87" as="targetPoint"/>
                    </mxGeometry>
                </mxCell>
                <mxCell id="181" value="" style="endArrow=none;html=1;strokeColor=#000000;fontColor=#000000;strokeWidth=2;" edge="1" parent="1">
                    <mxGeometry width="50" height="50" relative="1" as="geometry">
                        <mxPoint x="120.33999999999986" y="549.87" as="sourcePoint"/>
                        <mxPoint x="160.33999999999986" y="549.87" as="targetPoint"/>
                    </mxGeometry>
                </mxCell>
                <mxCell id="182" value="9" style="text;html=1;strokeColor=none;fillColor=#E6E6E6;align=center;verticalAlign=middle;whiteSpace=wrap;rounded=0;fontColor=#000000;fontStyle=1" vertex="1" parent="1">
                    <mxGeometry x="121.34" y="518.6" width="38" height="30" as="geometry"/>
                </mxCell>
                <mxCell id="183" value="7" style="text;html=1;strokeColor=none;fillColor=#66FFFF;align=center;verticalAlign=middle;whiteSpace=wrap;rounded=0;fontColor=#000000;fontStyle=1" vertex="1" parent="1">
                    <mxGeometry x="121.34" y="490.14" width="38" height="30" as="geometry"/>
                </mxCell>
                <mxCell id="184" value="" style="endArrow=none;html=1;strokeColor=#000000;fontColor=#000000;strokeWidth=2;dashed=1;" edge="1" parent="1">
                    <mxGeometry width="50" height="50" relative="1" as="geometry">
                        <mxPoint x="120.33999999999986" y="520.0600000000001" as="sourcePoint"/>
                        <mxPoint x="160.33999999999986" y="520.0600000000001" as="targetPoint"/>
                    </mxGeometry>
                </mxCell>
                <mxCell id="185" value="" style="endArrow=classic;html=1;strokeColor=#000000;fontColor=#000000;strokeWidth=2;" edge="1" parent="1">
                    <mxGeometry width="50" height="50" relative="1" as="geometry">
                        <mxPoint x="174.3400000000001" y="529.33" as="sourcePoint"/>
                        <mxPoint x="254.34000000000006" y="529.33" as="targetPoint"/>
                    </mxGeometry>
                </mxCell>
                <mxCell id="186" value="pq.size()" style="text;html=1;strokeColor=none;fillColor=none;align=center;verticalAlign=middle;whiteSpace=wrap;rounded=0;fontColor=#000000;" vertex="1" parent="1">
                    <mxGeometry x="180.34" y="509.3299999999999" width="60" height="20" as="geometry"/>
                </mxCell>
                <mxCell id="187" value="" style="endArrow=classic;html=1;strokeColor=#000000;fontColor=#000000;strokeWidth=2;" edge="1" parent="1">
                    <mxGeometry width="50" height="50" relative="1" as="geometry">
                        <mxPoint x="460.3399999999998" y="527.5999999999998" as="sourcePoint"/>
                        <mxPoint x="540.3399999999999" y="527.5999999999998" as="targetPoint"/>
                    </mxGeometry>
                </mxCell>
                <mxCell id="188" value="pq.pop()" style="text;html=1;strokeColor=none;fillColor=none;align=center;verticalAlign=middle;whiteSpace=wrap;rounded=0;fontColor=#000000;" vertex="1" parent="1">
                    <mxGeometry x="466.34" y="507.59999999999997" width="60" height="20" as="geometry"/>
                </mxCell>
                <mxCell id="189" value="" style="endArrow=none;html=1;strokeColor=#000000;fontColor=#000000;strokeWidth=2;" edge="1" parent="1">
                    <mxGeometry width="50" height="50" relative="1" as="geometry">
                        <mxPoint x="401.3399999999998" y="547.5999999999998" as="sourcePoint"/>
                        <mxPoint x="401.3399999999998" y="487.6" as="targetPoint"/>
                    </mxGeometry>
                </mxCell>
                <mxCell id="190" value="" style="endArrow=none;html=1;strokeColor=#000000;fontColor=#000000;strokeWidth=2;" edge="1" parent="1">
                    <mxGeometry width="50" height="50" relative="1" as="geometry">
                        <mxPoint x="441.3399999999998" y="547.5999999999998" as="sourcePoint"/>
                        <mxPoint x="441.3399999999998" y="487.6" as="targetPoint"/>
                    </mxGeometry>
                </mxCell>
                <mxCell id="191" value="" style="endArrow=none;html=1;strokeColor=#000000;fontColor=#000000;strokeWidth=2;" edge="1" parent="1">
                    <mxGeometry width="50" height="50" relative="1" as="geometry">
                        <mxPoint x="401.3399999999998" y="547.5999999999998" as="sourcePoint"/>
                        <mxPoint x="441.3399999999998" y="547.5999999999998" as="targetPoint"/>
                    </mxGeometry>
                </mxCell>
                <mxCell id="192" value="9" style="text;html=1;strokeColor=none;fillColor=#E6E6E6;align=center;verticalAlign=middle;whiteSpace=wrap;rounded=0;fontColor=#000000;fontStyle=1" vertex="1" parent="1">
                    <mxGeometry x="402.34" y="516.3299999999999" width="38" height="30" as="geometry"/>
                </mxCell>
                <mxCell id="193" value="7" style="text;html=1;strokeColor=none;fillColor=#66FFFF;align=center;verticalAlign=middle;whiteSpace=wrap;rounded=0;fontColor=#000000;fontStyle=1" vertex="1" parent="1">
                    <mxGeometry x="402.34" y="487.86999999999995" width="38" height="30" as="geometry"/>
                </mxCell>
                <mxCell id="194" value="" style="endArrow=none;html=1;strokeColor=#000000;fontColor=#000000;strokeWidth=2;dashed=1;" edge="1" parent="1">
                    <mxGeometry width="50" height="50" relative="1" as="geometry">
                        <mxPoint x="401.3399999999998" y="517.7899999999998" as="sourcePoint"/>
                        <mxPoint x="441.3399999999998" y="517.7899999999998" as="targetPoint"/>
                    </mxGeometry>
                </mxCell>
                <mxCell id="195" value="2" style="text;html=1;strokeColor=#66FFFF;fillColor=none;align=center;verticalAlign=middle;whiteSpace=wrap;rounded=0;fontColor=#000000;fontStyle=1;fontSize=14;labelBorderColor=none;strokeWidth=3;" vertex="1" parent="1">
                    <mxGeometry x="261.3399999999999" y="512.76" width="30" height="30" as="geometry"/>
                </mxCell>
                <mxCell id="196" value="" style="endArrow=none;html=1;strokeColor=#000000;fontColor=#000000;strokeWidth=2;" edge="1" parent="1">
                    <mxGeometry width="50" height="50" relative="1" as="geometry">
                        <mxPoint x="284.0600000000003" y="385.78999999999996" as="sourcePoint"/>
                        <mxPoint x="284.0600000000003" y="355.78999999999996" as="targetPoint"/>
                    </mxGeometry>
                </mxCell>
                <mxCell id="197" value="" style="endArrow=none;html=1;strokeColor=#000000;fontColor=#000000;strokeWidth=2;" edge="1" parent="1">
                    <mxGeometry width="50" height="50" relative="1" as="geometry">
                        <mxPoint x="324.0600000000003" y="385.78999999999996" as="sourcePoint"/>
                        <mxPoint x="324.0600000000003" y="355.78999999999996" as="targetPoint"/>
                    </mxGeometry>
                </mxCell>
                <mxCell id="198" value="" style="endArrow=none;html=1;strokeColor=#000000;fontColor=#000000;strokeWidth=2;" edge="1" parent="1">
                    <mxGeometry width="50" height="50" relative="1" as="geometry">
                        <mxPoint x="284.0600000000003" y="385.78999999999996" as="sourcePoint"/>
                        <mxPoint x="324.0600000000003" y="385.78999999999996" as="targetPoint"/>
                    </mxGeometry>
                </mxCell>
                <mxCell id="199" value="7" style="text;html=1;strokeColor=none;fillColor=#66FFFF;align=center;verticalAlign=middle;whiteSpace=wrap;rounded=0;fontColor=#000000;fontStyle=1;labelBackgroundColor=none;" vertex="1" parent="1">
                    <mxGeometry x="285.06000000000006" y="356.02000000000004" width="38" height="29" as="geometry"/>
                </mxCell>
                <mxCell id="200" value="" style="endArrow=classic;html=1;strokeColor=#000000;fontColor=#000000;strokeWidth=2;" edge="1" parent="1">
                    <mxGeometry width="50" height="50" relative="1" as="geometry">
                        <mxPoint x="609.3399999999999" y="528.0299999999999" as="sourcePoint"/>
                        <mxPoint x="689.3399999999999" y="528.0299999999999" as="targetPoint"/>
                    </mxGeometry>
                </mxCell>
                <mxCell id="201" value="pq.empty()" style="text;html=1;strokeColor=none;fillColor=none;align=center;verticalAlign=middle;whiteSpace=wrap;rounded=0;fontColor=#000000;" vertex="1" parent="1">
                    <mxGeometry x="615.34" y="508.03" width="60" height="20" as="geometry"/>
                </mxCell>
                <mxCell id="202" value="false" style="text;html=1;strokeColor=#66FFFF;fillColor=none;align=center;verticalAlign=middle;whiteSpace=wrap;rounded=0;fontColor=#000000;fontStyle=1;fontSize=14;labelBorderColor=none;strokeWidth=3;" vertex="1" parent="1">
                    <mxGeometry x="695.34" y="512.76" width="54" height="30" as="geometry"/>
                </mxCell>
                <mxCell id="203" value="" style="endArrow=none;html=1;strokeColor=#000000;fontColor=#000000;strokeWidth=2;" edge="1" parent="1">
                    <mxGeometry width="50" height="50" relative="1" as="geometry">
                        <mxPoint x="124.65999999999985" y="663.8399999999999" as="sourcePoint"/>
                        <mxPoint x="124.65999999999985" y="633.8399999999999" as="targetPoint"/>
                    </mxGeometry>
                </mxCell>
                <mxCell id="204" value="" style="endArrow=none;html=1;strokeColor=#000000;fontColor=#000000;strokeWidth=2;" edge="1" parent="1">
                    <mxGeometry width="50" height="50" relative="1" as="geometry">
                        <mxPoint x="164.65999999999985" y="663.8399999999999" as="sourcePoint"/>
                        <mxPoint x="164.65999999999985" y="633.8399999999999" as="targetPoint"/>
                    </mxGeometry>
                </mxCell>
                <mxCell id="205" value="" style="endArrow=none;html=1;strokeColor=#000000;fontColor=#000000;strokeWidth=2;" edge="1" parent="1">
                    <mxGeometry width="50" height="50" relative="1" as="geometry">
                        <mxPoint x="124.65999999999985" y="663.8399999999999" as="sourcePoint"/>
                        <mxPoint x="164.65999999999985" y="663.8399999999999" as="targetPoint"/>
                    </mxGeometry>
                </mxCell>
                <mxCell id="206" value="9" style="text;html=1;strokeColor=none;fillColor=#66FFFF;align=center;verticalAlign=middle;whiteSpace=wrap;rounded=0;fontColor=#000000;fontStyle=1;labelBackgroundColor=none;" vertex="1" parent="1">
                    <mxGeometry x="125.66" y="634.07" width="38" height="29" as="geometry"/>
                </mxCell>
                <mxCell id="207" value="" style="endArrow=classic;html=1;strokeColor=#000000;fontColor=#000000;strokeWidth=2;" edge="1" parent="1">
                    <mxGeometry width="50" height="50" relative="1" as="geometry">
                        <mxPoint x="177.66000000000008" y="643.9999999999998" as="sourcePoint"/>
                        <mxPoint x="257.6600000000001" y="643.9999999999998" as="targetPoint"/>
                    </mxGeometry>
                </mxCell>
                <mxCell id="208" value="pq.pop()" style="text;html=1;strokeColor=none;fillColor=none;align=center;verticalAlign=middle;whiteSpace=wrap;rounded=0;fontColor=#000000;" vertex="1" parent="1">
                    <mxGeometry x="183.66" y="624" width="60" height="20" as="geometry"/>
                </mxCell>
                <mxCell id="209" value="pq" style="text;html=1;strokeColor=none;fillColor=none;align=center;verticalAlign=middle;whiteSpace=wrap;rounded=0;fontColor=#000000;fontStyle=1;fontSize=18;labelBorderColor=none;strokeWidth=3;" vertex="1" parent="1">
                    <mxGeometry x="259.65999999999997" y="629" width="30" height="30" as="geometry"/>
                </mxCell>
                <mxCell id="210" value="" style="endArrow=classic;html=1;strokeColor=#000000;fontColor=#000000;strokeWidth=2;" edge="1" parent="1">
                    <mxGeometry width="50" height="50" relative="1" as="geometry">
                        <mxPoint x="293.6600000000001" y="643.9999999999998" as="sourcePoint"/>
                        <mxPoint x="373.65999999999985" y="643.9999999999998" as="targetPoint"/>
                    </mxGeometry>
                </mxCell>
                <mxCell id="211" value="s.empty()" style="text;html=1;strokeColor=none;fillColor=none;align=center;verticalAlign=middle;whiteSpace=wrap;rounded=0;fontColor=#000000;" vertex="1" parent="1">
                    <mxGeometry x="299.66" y="624" width="60" height="20" as="geometry"/>
                </mxCell>
                <mxCell id="212" value="true" style="text;html=1;strokeColor=#66FFFF;fillColor=none;align=center;verticalAlign=middle;whiteSpace=wrap;rounded=0;fontColor=#000000;fontStyle=1;fontSize=14;labelBorderColor=none;strokeWidth=3;" vertex="1" parent="1">
                    <mxGeometry x="384.66" y="629" width="54" height="30" as="geometry"/>
                </mxCell>
                <mxCell id="213" value="pq" style="text;html=1;strokeColor=none;fillColor=none;align=center;verticalAlign=middle;whiteSpace=wrap;rounded=0;fontColor=#000000;fontStyle=1;fontSize=18;labelBorderColor=none;strokeWidth=3;" vertex="1" parent="1">
                    <mxGeometry x="564.66" y="631.5" width="30" height="30" as="geometry"/>
                </mxCell>
                <mxCell id="214" value="" style="endArrow=classic;html=1;strokeColor=#000000;fontColor=#000000;strokeWidth=2;" edge="1" parent="1">
                    <mxGeometry width="50" height="50" relative="1" as="geometry">
                        <mxPoint x="598.6599999999999" y="646.4999999999998" as="sourcePoint"/>
                        <mxPoint x="678.6599999999999" y="646.4999999999998" as="targetPoint"/>
                    </mxGeometry>
                </mxCell>
                <mxCell id="215" value="pq.size()" style="text;html=1;strokeColor=none;fillColor=none;align=center;verticalAlign=middle;whiteSpace=wrap;rounded=0;fontColor=#000000;" vertex="1" parent="1">
                    <mxGeometry x="604.66" y="626.5" width="60" height="20" as="geometry"/>
                </mxCell>
                <mxCell id="216" value="0" style="text;html=1;strokeColor=#66FFFF;fillColor=none;align=center;verticalAlign=middle;whiteSpace=wrap;rounded=0;fontColor=#000000;fontStyle=1;fontSize=14;labelBorderColor=none;strokeWidth=3;" vertex="1" parent="1">
                    <mxGeometry x="689.66" y="631.5" width="30" height="30" as="geometry"/>
                </mxCell>
                <mxCell id="217" value="pq" style="text;html=1;strokeColor=none;fillColor=none;align=center;verticalAlign=middle;whiteSpace=wrap;rounded=0;fontColor=#000000;fontStyle=1;fontSize=12;labelBorderColor=none;strokeWidth=3;" vertex="1" parent="1">
                    <mxGeometry x="321.34" y="230" width="30" height="19" as="geometry"/>
                </mxCell>
                <mxCell id="218" value="pq" style="text;html=1;strokeColor=none;fillColor=none;align=center;verticalAlign=middle;whiteSpace=wrap;rounded=0;fontColor=#000000;fontStyle=1;fontSize=12;labelBorderColor=none;strokeWidth=3;" vertex="1" parent="1">
                    <mxGeometry x="478.34" y="229" width="30" height="19" as="geometry"/>
                </mxCell>
                <mxCell id="219" value="pq" style="text;html=1;strokeColor=none;fillColor=none;align=center;verticalAlign=middle;whiteSpace=wrap;rounded=0;fontColor=#000000;fontStyle=1;fontSize=12;labelBorderColor=none;strokeWidth=3;" vertex="1" parent="1">
                    <mxGeometry x="628.34" y="230" width="30" height="19" as="geometry"/>
                </mxCell>
                <mxCell id="220" value="pq" style="text;html=1;strokeColor=none;fillColor=none;align=center;verticalAlign=middle;whiteSpace=wrap;rounded=0;fontColor=#000000;fontStyle=1;fontSize=12;labelBorderColor=none;strokeWidth=3;" vertex="1" parent="1">
                    <mxGeometry x="-14.659999999999958" y="386.07" width="30" height="19" as="geometry"/>
                </mxCell>
                <mxCell id="221" value="pq" style="text;html=1;strokeColor=none;fillColor=none;align=center;verticalAlign=middle;whiteSpace=wrap;rounded=0;fontColor=#000000;fontStyle=1;fontSize=12;labelBorderColor=none;strokeWidth=3;" vertex="1" parent="1">
                    <mxGeometry x="134.34" y="386.07" width="30" height="19" as="geometry"/>
                </mxCell>
                <mxCell id="222" value="pq" style="text;html=1;strokeColor=none;fillColor=none;align=center;verticalAlign=middle;whiteSpace=wrap;rounded=0;fontColor=#000000;fontStyle=1;fontSize=12;labelBorderColor=none;strokeWidth=3;" vertex="1" parent="1">
                    <mxGeometry x="289.06000000000006" y="386.07" width="30" height="19" as="geometry"/>
                </mxCell>
                <mxCell id="223" value="pq" style="text;html=1;strokeColor=none;fillColor=none;align=center;verticalAlign=middle;whiteSpace=wrap;rounded=0;fontColor=#000000;fontStyle=1;fontSize=12;labelBorderColor=none;strokeWidth=3;" vertex="1" parent="1">
                    <mxGeometry x="440.34000000000003" y="386.07" width="30" height="19" as="geometry"/>
                </mxCell>
                <mxCell id="224" value="pq" style="text;html=1;strokeColor=none;fillColor=none;align=center;verticalAlign=middle;whiteSpace=wrap;rounded=0;fontColor=#000000;fontStyle=1;fontSize=12;labelBorderColor=none;strokeWidth=3;" vertex="1" parent="1">
                    <mxGeometry x="125" y="548.6" width="30" height="19" as="geometry"/>
                </mxCell>
                <mxCell id="225" value="pq" style="text;html=1;strokeColor=none;fillColor=none;align=center;verticalAlign=middle;whiteSpace=wrap;rounded=0;fontColor=#000000;fontStyle=1;fontSize=12;labelBorderColor=none;strokeWidth=3;" vertex="1" parent="1">
                    <mxGeometry x="406.34" y="546.33" width="30" height="19" as="geometry"/>
                </mxCell>
                <mxCell id="226" value="pq" style="text;html=1;strokeColor=none;fillColor=none;align=center;verticalAlign=middle;whiteSpace=wrap;rounded=0;fontColor=#000000;fontStyle=1;fontSize=12;labelBorderColor=none;strokeWidth=3;" vertex="1" parent="1">
                    <mxGeometry x="561.34" y="548.6" width="30" height="19" as="geometry"/>
                </mxCell>
                <mxCell id="227" value="pq" style="text;html=1;strokeColor=none;fillColor=none;align=center;verticalAlign=middle;whiteSpace=wrap;rounded=0;fontColor=#000000;fontStyle=1;fontSize=12;labelBorderColor=none;strokeWidth=3;" vertex="1" parent="1">
                    <mxGeometry x="129.32" y="663.0699999999999" width="30" height="19" as="geometry"/>
                </mxCell>
                <mxCell id="228" value="" style="endArrow=none;dashed=1;html=1;fontSize=12;fontColor=#66FFFF;strokeColor=#808080;" edge="1" parent="1">
                    <mxGeometry width="50" height="50" relative="1" as="geometry">
                        <mxPoint x="-200" y="266" as="sourcePoint"/>
                        <mxPoint x="860" y="266" as="targetPoint"/>
                    </mxGeometry>
                </mxCell>
                <mxCell id="229" value="" style="endArrow=none;dashed=1;html=1;fontSize=12;fontColor=#66FFFF;strokeColor=#808080;" edge="1" parent="1">
                    <mxGeometry width="50" height="50" relative="1" as="geometry">
                        <mxPoint x="-180" y="431" as="sourcePoint"/>
                        <mxPoint x="870" y="430" as="targetPoint"/>
                    </mxGeometry>
                </mxCell>
                <mxCell id="230" value="" style="endArrow=none;dashed=1;html=1;fontSize=12;fontColor=#66FFFF;strokeColor=#808080;" edge="1" parent="1">
                    <mxGeometry width="50" height="50" relative="1" as="geometry">
                        <mxPoint x="-177" y="600" as="sourcePoint"/>
                        <mxPoint x="893" y="597" as="targetPoint"/>
                    </mxGeometry>
                </mxCell>
                <mxCell id="231" value="&lt;font color=&quot;#ffffff&quot;&gt;s.top()&lt;/font&gt;" style="text;html=1;strokeColor=none;fillColor=none;align=center;verticalAlign=middle;whiteSpace=wrap;rounded=0;fontColor=#000000;" vertex="1" parent="1">
                    <mxGeometry x="566" y="93" width="60" height="20" as="geometry"/>
                </mxCell>
                <mxCell id="232" style="edgeStyle=none;html=1;exitX=0.75;exitY=1;exitDx=0;exitDy=0;" edge="1" parent="1" source="233">
                    <mxGeometry relative="1" as="geometry">
                        <mxPoint x="153" y="730" as="targetPoint"/>
                    </mxGeometry>
                </mxCell>
                <mxCell id="233" value="&lt;font color=&quot;#ffffff&quot;&gt;s.top()&lt;/font&gt;" style="text;html=1;strokeColor=none;fillColor=none;align=center;verticalAlign=middle;whiteSpace=wrap;rounded=0;fontColor=#000000;" vertex="1" parent="1">
                    <mxGeometry x="114.66000000000003" y="696" width="60" height="20" as="geometry"/>
                </mxCell>
                <mxCell id="237" value="" style="endArrow=classic;html=1;strokeColor=#000000;fontColor=#000000;strokeWidth=2;" edge="1" parent="1">
                    <mxGeometry width="50" height="50" relative="1" as="geometry">
                        <mxPoint x="482.84999999999997" y="367.34000000000003" as="sourcePoint"/>
                        <mxPoint x="562.8499999999999" y="367.34000000000003" as="targetPoint"/>
                    </mxGeometry>
                </mxCell>
                <mxCell id="238" value="pq.push(9)" style="text;html=1;strokeColor=none;fillColor=none;align=center;verticalAlign=middle;whiteSpace=wrap;rounded=0;fontColor=#000000;" vertex="1" parent="1">
                    <mxGeometry x="488.84999999999997" y="347.34" width="60" height="20" as="geometry"/>
                </mxCell>
                <mxCell id="246" value="" style="endArrow=none;html=1;strokeColor=#000000;fontColor=#000000;strokeWidth=2;" edge="1" parent="1">
                    <mxGeometry width="50" height="50" relative="1" as="geometry">
                        <mxPoint x="574.48" y="387" as="sourcePoint"/>
                        <mxPoint x="574.48" y="297" as="targetPoint"/>
                    </mxGeometry>
                </mxCell>
                <mxCell id="247" value="" style="endArrow=none;html=1;strokeColor=#000000;fontColor=#000000;strokeWidth=2;" edge="1" parent="1">
                    <mxGeometry width="50" height="50" relative="1" as="geometry">
                        <mxPoint x="614.48" y="387" as="sourcePoint"/>
                        <mxPoint x="614.48" y="297" as="targetPoint"/>
                    </mxGeometry>
                </mxCell>
                <mxCell id="248" value="" style="endArrow=none;html=1;strokeColor=#000000;fontColor=#000000;strokeWidth=2;" edge="1" parent="1">
                    <mxGeometry width="50" height="50" relative="1" as="geometry">
                        <mxPoint x="574.48" y="387" as="sourcePoint"/>
                        <mxPoint x="614.48" y="387" as="targetPoint"/>
                    </mxGeometry>
                </mxCell>
                <mxCell id="249" value="9" style="text;html=1;strokeColor=none;fillColor=#E6E6E6;align=center;verticalAlign=middle;whiteSpace=wrap;rounded=0;fontColor=#000000;fontStyle=1" vertex="1" parent="1">
                    <mxGeometry x="575.48" y="356" width="38" height="30" as="geometry"/>
                </mxCell>
                <mxCell id="250" value="7" style="text;html=1;strokeColor=none;fillColor=#E6E6E6;align=center;verticalAlign=middle;whiteSpace=wrap;rounded=0;fontColor=#000000;fontStyle=1" vertex="1" parent="1">
                    <mxGeometry x="575.48" y="327" width="38" height="30" as="geometry"/>
                </mxCell>
                <mxCell id="251" value="3" style="text;html=1;strokeColor=none;fillColor=#66FFFF;align=center;verticalAlign=middle;whiteSpace=wrap;rounded=0;fontColor=#000000;fontStyle=1" vertex="1" parent="1">
                    <mxGeometry x="575.48" y="297" width="38" height="30" as="geometry"/>
                </mxCell>
                <mxCell id="252" value="" style="endArrow=none;html=1;strokeColor=#000000;fontColor=#000000;strokeWidth=2;dashed=1;" edge="1" parent="1">
                    <mxGeometry width="50" height="50" relative="1" as="geometry">
                        <mxPoint x="574.48" y="357" as="sourcePoint"/>
                        <mxPoint x="614.48" y="357" as="targetPoint"/>
                    </mxGeometry>
                </mxCell>
                <mxCell id="253" value="" style="endArrow=none;html=1;strokeColor=#000000;fontColor=#000000;strokeWidth=2;dashed=1;" edge="1" parent="1">
                    <mxGeometry width="50" height="50" relative="1" as="geometry">
                        <mxPoint x="574.48" y="327" as="sourcePoint"/>
                        <mxPoint x="614.48" y="327" as="targetPoint"/>
                    </mxGeometry>
                </mxCell>
                <mxCell id="254" value="pq" style="text;html=1;strokeColor=none;fillColor=none;align=center;verticalAlign=middle;whiteSpace=wrap;rounded=0;fontColor=#000000;fontStyle=1;fontSize=12;labelBorderColor=none;strokeWidth=3;" vertex="1" parent="1">
                    <mxGeometry x="579.82" y="386.07" width="30" height="19" as="geometry"/>
                </mxCell>
                <mxCell id="255" value="" style="endArrow=none;html=1;strokeColor=#000000;fontColor=#000000;strokeWidth=2;" edge="1" parent="1">
                    <mxGeometry width="50" height="50" relative="1" as="geometry">
                        <mxPoint x="-21.910000000000032" y="554" as="sourcePoint"/>
                        <mxPoint x="-21.910000000000032" y="464" as="targetPoint"/>
                    </mxGeometry>
                </mxCell>
                <mxCell id="256" value="" style="endArrow=none;html=1;strokeColor=#000000;fontColor=#000000;strokeWidth=2;" edge="1" parent="1">
                    <mxGeometry width="50" height="50" relative="1" as="geometry">
                        <mxPoint x="18.089999999999968" y="554" as="sourcePoint"/>
                        <mxPoint x="18.089999999999968" y="464" as="targetPoint"/>
                    </mxGeometry>
                </mxCell>
                <mxCell id="257" value="" style="endArrow=none;html=1;strokeColor=#000000;fontColor=#000000;strokeWidth=2;" edge="1" parent="1">
                    <mxGeometry width="50" height="50" relative="1" as="geometry">
                        <mxPoint x="-21.910000000000032" y="554" as="sourcePoint"/>
                        <mxPoint x="18.089999999999968" y="554" as="targetPoint"/>
                    </mxGeometry>
                </mxCell>
                <mxCell id="258" value="9" style="text;html=1;strokeColor=none;fillColor=#E6E6E6;align=center;verticalAlign=middle;whiteSpace=wrap;rounded=0;fontColor=#000000;fontStyle=1" vertex="1" parent="1">
                    <mxGeometry x="-20.910000000000032" y="523" width="38" height="30" as="geometry"/>
                </mxCell>
                <mxCell id="259" value="7" style="text;html=1;strokeColor=none;fillColor=#E6E6E6;align=center;verticalAlign=middle;whiteSpace=wrap;rounded=0;fontColor=#000000;fontStyle=1" vertex="1" parent="1">
                    <mxGeometry x="-20.910000000000032" y="494" width="38" height="30" as="geometry"/>
                </mxCell>
                <mxCell id="260" value="3" style="text;html=1;strokeColor=none;fillColor=#66FFFF;align=center;verticalAlign=middle;whiteSpace=wrap;rounded=0;fontColor=#000000;fontStyle=1" vertex="1" parent="1">
                    <mxGeometry x="-20.910000000000032" y="464" width="38" height="30" as="geometry"/>
                </mxCell>
                <mxCell id="261" value="" style="endArrow=none;html=1;strokeColor=#000000;fontColor=#000000;strokeWidth=2;dashed=1;" edge="1" parent="1">
                    <mxGeometry width="50" height="50" relative="1" as="geometry">
                        <mxPoint x="-21.910000000000032" y="524" as="sourcePoint"/>
                        <mxPoint x="18.089999999999968" y="524" as="targetPoint"/>
                    </mxGeometry>
                </mxCell>
                <mxCell id="262" value="" style="endArrow=none;html=1;strokeColor=#000000;fontColor=#000000;strokeWidth=2;dashed=1;" edge="1" parent="1">
                    <mxGeometry width="50" height="50" relative="1" as="geometry">
                        <mxPoint x="-21.910000000000032" y="494" as="sourcePoint"/>
                        <mxPoint x="18.089999999999968" y="494" as="targetPoint"/>
                    </mxGeometry>
                </mxCell>
                <mxCell id="263" value="pq" style="text;html=1;strokeColor=none;fillColor=none;align=center;verticalAlign=middle;whiteSpace=wrap;rounded=0;fontColor=#000000;fontStyle=1;fontSize=12;labelBorderColor=none;strokeWidth=3;" vertex="1" parent="1">
                    <mxGeometry x="-16.57" y="553.07" width="30" height="19" as="geometry"/>
                </mxCell>
                <mxCell id="264" value="" style="endArrow=classic;html=1;strokeColor=#000000;fontColor=#000000;strokeWidth=2;" edge="1" parent="1">
                    <mxGeometry width="50" height="50" relative="1" as="geometry">
                        <mxPoint x="27.429999999999918" y="529.3299999999999" as="sourcePoint"/>
                        <mxPoint x="107.42999999999992" y="529.3299999999999" as="targetPoint"/>
                    </mxGeometry>
                </mxCell>
                <mxCell id="265" value="pq.pop()" style="text;html=1;strokeColor=none;fillColor=none;align=center;verticalAlign=middle;whiteSpace=wrap;rounded=0;fontColor=#000000;" vertex="1" parent="1">
                    <mxGeometry x="33.43000000000002" y="509.3299999999999" width="60" height="20" as="geometry"/>
                </mxCell>
            </root>
        </mxGraphModel>
    </diagram>
</mxfile>